<?xml version="1.0" encoding="UTF-8"?><svg id="a" xmlns="http://www.w3.org/2000/svg" viewBox="0 0 1400 400"><defs><style>.b{fill:#ffd250;}.b,.c,.d,.e{stroke-width:0px;}.c{fill:#7861c0;}.d{fill:#313573;}.e{fill:#f86f5d;}</style></defs><path class="b" d="m200,100.02c0,55.22-43.9,99.98-98.04,99.98-.66,0-1.31-.01-1.96-.02,0-55.22,43.9-99.98,98.04-99.98.66,0,1.31.01,1.96.02Z"/><path class="c" d="m100,200C44.59,198.93.01,154.57,0,100c55.41,1.07,99.99,45.43,100,100Z"/><path class="d" d="m200,100c-55.23,0-100-44.77-100-100,55.23,0,100,44.77,100,100Z"/><path class="e" d="m100,0c0,55.23-44.77,100-100,100C0,44.77,44.77,0,100,0Z"/><path class="b" d="m400,100.02c0,55.22-43.9,99.98-98.04,99.98-.66,0-1.31-.01-1.96-.02,0-55.22,43.9-99.98,98.04-99.98.66,0,1.31.01,1.96.02Z"/><path class="c" d="m300,200c-55.41-1.07-99.99-45.43-100-100,55.41,1.07,99.99,45.43,100,100Z"/><path class="d" d="m400,100c-55.23,0-100-44.77-100-100,55.23,0,100,44.77,100,100Z"/><path class="e" d="m300,0c0,55.23-44.77,100-100,100C200,44.77,244.77,0,300,0Z"/><path class="b" d="m600,100.02c0,55.22-43.9,99.98-98.04,99.98-.66,0-1.31-.01-1.96-.02,0-55.22,43.9-99.98,98.04-99.98.66,0,1.31.01,1.96.02Z"/><path class="c" d="m500,200c-55.41-1.07-99.99-45.43-100-100,55.41,1.07,99.99,45.43,100,100Z"/><path class="d" d="m600,100c-55.23,0-100-44.77-100-100,55.23,0,100,44.77,100,100Z"/><path class="e" d="m500,0c0,55.23-44.77,100-100,100,0-55.23,44.77-100,100-100Z"/><path class="b" d="m800,100.02c0,55.22-43.9,99.98-98.04,99.98-.66,0-1.31-.01-1.96-.02,0-55.22,43.9-99.98,98.04-99.98.66,0,1.31.01,1.96.02Z"/><path class="c" d="m700,200c-55.41-1.07-99.99-45.43-100-100,55.41,1.07,99.99,45.43,100,100Z"/><path class="d" d="m800,100c-55.23,0-100-44.77-100-100,55.23,0,100,44.77,100,100Z"/><path class="e" d="m700,0c0,55.23-44.77,100-100,100,0-55.23,44.77-100,100-100Z"/><path class="b" d="m1000,100.02c0,55.22-43.9,99.98-98.04,99.98-.66,0-1.31-.01-1.96-.02,0-55.22,43.9-99.98,98.04-99.98.66,0,1.31.01,1.96.02Z"/><path class="c" d="m900,200c-55.41-1.07-99.99-45.43-100-100,55.41,1.07,99.99,45.43,100,100Z"/><path class="d" d="m1000,100c-55.23,0-100-44.77-100-100,55.23,0,100,44.77,100,100Z"/><path class="e" d="m900,0c0,55.23-44.77,100-100,100,0-55.23,44.77-100,100-100Z"/><path class="b" d="m1200,100.02c0,55.22-43.9,99.98-98.04,99.98-.66,0-1.31-.01-1.96-.02,0-55.22,43.9-99.98,98.04-99.98.66,0,1.31.01,1.96.02Z"/><path class="c" d="m1100,200c-55.41-1.07-99.99-45.43-100-100,55.41,1.07,99.99,45.43,100,100Z"/><path class="d" d="m1200,100c-55.23,0-100-44.77-100-100,55.23,0,100,44.77,100,100Z"/><path class="e" d="m1100,0c0,55.23-44.77,100-100,100,0-55.23,44.77-100,100-100Z"/><path class="b" d="m1400,100.02c0,55.22-43.9,99.98-98.04,99.98-.66,0-1.31-.01-1.96-.02,0-55.22,43.9-99.98,98.04-99.98.66,0,1.31.01,1.96.02Z"/><path class="c" d="m1300,200c-55.41-1.07-99.99-45.43-100-100,55.41,1.07,99.99,45.43,100,100Z"/><path class="d" d="m1400,100c-55.23,0-100-44.77-100-100,55.23,0,100,44.77,100,100Z"/><path class="e" d="m1300,0c0,55.23-44.77,100-100,100,0-55.23,44.77-100,100-100Z"/><path class="b" d="m200,300.02c0,55.22-43.9,99.98-98.04,99.98-.66,0-1.31-.01-1.96-.02,0-55.22,43.9-99.98,98.04-99.98.66,0,1.31.01,1.96.02Z"/><path class="c" d="m100,400C44.59,398.93.01,354.57,0,300c55.41,1.07,99.99,45.43,100,100Z"/><path class="d" d="m200,300c-55.23,0-100-44.77-100-100,55.23,0,100,44.77,100,100Z"/><path class="e" d="m100,200c0,55.23-44.77,100-100,100,0-55.23,44.77-100,100-100Z"/><path class="b" d="m400,300.02c0,55.22-43.9,99.98-98.04,99.98-.66,0-1.31-.01-1.96-.02,0-55.22,43.9-99.98,98.04-99.98.66,0,1.31.01,1.96.02Z"/><path class="c" d="m300,400c-55.41-1.07-99.99-45.43-100-100,55.41,1.07,99.99,45.43,100,100Z"/><path class="d" d="m400,300c-55.23,0-100-44.77-100-100,55.23,0,100,44.77,100,100Z"/><path class="e" d="m300,200c0,55.23-44.77,100-100,100,0-55.23,44.77-100,100-100Z"/><path class="b" d="m600,300.02c0,55.22-43.9,99.98-98.04,99.98-.66,0-1.31-.01-1.96-.02,0-55.22,43.9-99.98,98.04-99.98.66,0,1.31.01,1.96.02Z"/><path class="c" d="m500,400c-55.41-1.07-99.99-45.43-100-100,55.41,1.07,99.99,45.43,100,100Z"/><path class="d" d="m600,300c-55.23,0-100-44.77-100-100,55.23,0,100,44.77,100,100Z"/><path class="e" d="m500,200c0,55.23-44.77,100-100,100,0-55.23,44.77-100,100-100Z"/><path class="b" d="m800,300.02c0,55.22-43.9,99.98-98.04,99.98-.66,0-1.31-.01-1.96-.02,0-55.22,43.9-99.98,98.04-99.98.66,0,1.31.01,1.96.02Z"/><path class="c" d="m700,400c-55.41-1.07-99.99-45.43-100-100,55.41,1.07,99.99,45.43,100,100Z"/><path class="d" d="m800,300c-55.23,0-100-44.77-100-100,55.23,0,100,44.77,100,100Z"/><path class="e" d="m700,200c0,55.23-44.77,100-100,100,0-55.23,44.77-100,100-100Z"/><path class="b" d="m1000,300.02c0,55.22-43.9,99.98-98.04,99.98-.66,0-1.31-.01-1.96-.02,0-55.22,43.9-99.98,98.04-99.98.66,0,1.31.01,1.96.02Z"/><path class="c" d="m900,400c-55.41-1.07-99.99-45.43-100-100,55.41,1.07,99.99,45.43,100,100Z"/><path class="d" d="m1000,300c-55.23,0-100-44.77-100-100,55.23,0,100,44.77,100,100Z"/><path class="e" d="m900,200c0,55.23-44.77,100-100,100,0-55.23,44.77-100,100-100Z"/><path class="b" d="m1200,300.02c0,55.22-43.9,99.98-98.04,99.98-.66,0-1.31-.01-1.96-.02,0-55.22,43.9-99.98,98.04-99.98.66,0,1.31.01,1.96.02Z"/><path class="c" d="m1100,400c-55.41-1.07-99.99-45.43-100-100,55.41,1.07,99.99,45.43,100,100Z"/><path class="d" d="m1200,300c-55.23,0-100-44.77-100-100,55.23,0,100,44.77,100,100Z"/><path class="e" d="m1100,200c0,55.23-44.77,100-100,100,0-55.23,44.77-100,100-100Z"/><path class="b" d="m1400,300.02c0,55.22-43.9,99.98-98.04,99.98-.66,0-1.31-.01-1.96-.02,0-55.22,43.9-99.98,98.04-99.98.66,0,1.31.01,1.96.02Z"/><path class="c" d="m1300,400c-55.41-1.07-99.99-45.43-100-100,55.41,1.07,99.99,45.43,100,100Z"/><path class="d" d="m1400,300c-55.23,0-100-44.77-100-100,55.23,0,100,44.77,100,100Z"/><path class="e" d="m1300,200c0,55.23-44.77,100-100,100,0-55.23,44.77-100,100-100Z"/></svg>